Coordinates
version=1
nRows=17
nColumns=24
inDegrees=yes

Units are S.I. units (second, meters, Newtons, ...)
Angles are in degrees.

endheader
time	pelvis_tilt	pelvis_list	pelvis_rotation	pelvis_tx	pelvis_ty	pelvis_tz	hip_flexion_r	hip_adduction_r	hip_rotation_r	knee_angle_r	ankle_angle_r	subtalar_angle_r	mtp_angle_r	hip_flexion_l	hip_adduction_l	hip_rotation_l	knee_angle_l	ankle_angle_l	subtalar_angle_l	mtp_angle_l	lumbar_extension	lumbar_bending	lumbar_rotation
      1.11700000	     -0.89703799	      3.56828171	     -2.87728758	      0.13482176	      1.06180446	      0.30491738	     23.14752370	     -2.91774202	      1.15231744	    -66.09660040	      3.71247904	    -13.56101434	      6.34135576	     11.83319972	      6.97189466	     -3.82403204	    -13.32987361	      5.79753276	      0.00453664	      3.03330850	      2.69703411	     -1.15317429	     -0.19383030
      1.12116667	     -0.92520450	      3.54588398	     -2.91428314	      0.13999180	      1.06240678	      0.30485853	     23.64588495	     -2.77166759	      1.36075836	    -65.42254151	      4.13347509	    -13.70624181	      6.28977429	     11.47037264	      6.98278512	     -3.77795812	    -13.16960904	      5.93156482	     -0.05112680	      3.00658314	      2.69458179	     -1.13415637	     -0.20731251
      1.12533333	     -0.97686415	      3.50822068	     -2.92185381	      0.14510304	      1.06295565	      0.30484154	     24.14154921	     -2.60853996	      1.54665946	    -64.65461880	      4.34117068	    -13.77202683	      6.27019481	     11.13982883	      6.97170213	     -3.70561195	    -13.02214403	      5.99485717	     -0.07500004	      2.99670582	      2.61572807	     -1.14695608	     -0.21734411
      1.12950000	     -0.98100963	      3.51086669	     -3.00190375	      0.15037295	      1.06357850	      0.30475892	     24.56708179	     -2.48715183	      1.77079293	    -63.83929934	      4.84554546	    -13.96706375	      6.21808449	     10.72168667	      7.01701478	     -3.66793224	    -12.80161736	      6.17106075	     -0.17262403	      2.96915713	      2.70326185	     -1.09248434	     -0.23192437
      1.13366667	     -1.05013557	      3.47921644	     -3.01446811	      0.15547772	      1.06406386	      0.30476122	     25.03600352	     -2.32817464	      1.95168467	    -62.93002220	      5.04327842	    -14.02740314	      6.19710717	     10.40482891	      7.01000791	     -3.60344892	    -12.64125427	      6.23384984	     -0.20754118	      2.95813618	      2.61717243	     -1.11532665	     -0.23961159
      1.13783333	     -1.05565439	      3.46488359	     -3.08401233	      0.16076835	      1.06465961	      0.30470567	     25.40156407	     -2.18929326	      2.15076314	    -61.95111991	      5.44548748	    -14.19455940	      6.14008661	      9.98012692	      7.03593716	     -3.56317291	    -12.40769731	      6.39027961	     -0.32522281	      2.92682047	      2.70514357	     -1.05769286	     -0.25141250
      1.14200000	     -1.09834788	      3.44480817	     -3.12442365	      0.16598398	      1.06516169	      0.30469640	     25.78269468	     -2.04443662	      2.33160568	    -60.89702150	      5.71131153	    -14.31344002	      6.07868137	      9.60822526	      7.04782895	     -3.50009028	    -12.19975654	      6.49472915	     -0.42490046	      2.89232367	      2.70200842	     -1.04098154	     -0.25946328
      1.14616667	     -1.13167982	      3.42740928	     -3.16358452	      0.17121397	      1.06565273	      0.30467771	     26.12541828	     -1.90760649	      2.50042783	    -59.76792630	      5.91162373	    -14.43097963	      6.01699911	      9.22182435	      7.06604594	     -3.42822303	    -11.97901366	      6.58534708	     -0.52130336	      2.85760435	      2.70856079	     -1.02835454	     -0.26841616
      1.15033333	     -1.17768202	      3.40750238	     -3.20468350	      0.17647580	      1.06610644	      0.30467889	     26.44996727	     -1.76606221	      2.66376474	    -58.56270686	      6.06230349	    -14.55327495	      5.96014089	      8.84390142	      7.07911859	     -3.35916952	    -11.75053452	      6.66786873	     -0.61592464	      2.82569158	      2.73169875	     -1.01406719	     -0.27840826
      1.15450000	     -1.27356238	      3.40445932	     -3.23160292	      0.18163609	      1.06640908	      0.30473362	     26.81661728	     -1.63821735	      2.83044876	    -57.31083299	      6.17146865	    -14.62472825	      5.93460018	      8.53938677	      7.10024058	     -3.28797563	    -11.55609194	      6.71950181	     -0.66164395	      2.81204408	      2.67212700	     -1.05099141	     -0.28453012
      1.15866667	     -1.27122268	      3.36751780	     -3.27127891	      0.18707570	      1.06694382	      0.30469299	     27.00509879	     -1.49714790	      2.94977226	    -55.93664376	      6.24181283	    -14.83475449	      5.86775103	      8.08035697	      7.10650989	     -3.21722067	    -11.28349452	      6.82462819	     -0.80611401	      2.77499229	      2.81968670	     -0.98575472	     -0.30260788
      1.16283333	     -1.29488945	      3.33363117	     -3.29176756	      0.19240345	      1.06736947	      0.30469883	     27.20386815	     -1.35883410	      3.06140674	    -54.50551984	      6.23034308	    -15.06575568	      5.79180051	      7.66756754	      7.10830448	     -3.12051807	    -11.04183072	      6.89919367	     -0.94446707	      2.73253946	      2.84630100	     -0.94908056	     -0.32732231
      1.16700000	     -1.32486101	      3.30634678	     -3.30636220	      0.19774720	      1.06774288	      0.30470256	     27.38262758	     -1.23317661	      3.15311216	    -53.01295518	      6.15431223	    -15.32281914	      5.70630282	      7.26077077	      7.11841852	     -3.01430629	    -10.79694045	      6.96082486	     -1.08422998	      2.68463284	      2.86747508	     -0.92469756	     -0.35755104
      1.17116667	     -1.36266912	      3.27938692	     -3.31342790	      0.20309528	      1.06807724	      0.30470161	     27.53848444	     -1.11410562	      3.23127854	    -51.45480415	      6.03207646	    -15.59452641	      5.61685184	      6.86473786	      7.12813931	     -2.91239533	    -10.55832458	      7.01357987	     -1.21752225	      2.63456676	      2.89113700	     -0.90575832	     -0.39360707
      1.17533333	     -1.41582355	      3.25541495	     -3.31739694	      0.20847093	      1.06835179	      0.30471834	     27.68091725	     -1.00118839	      3.29463327	    -49.83764255	      5.88334222	    -15.86236159	      5.53062520	      6.48487511	      7.14007119	     -2.80644903	    -10.32114247	      7.06609887	     -1.34337886	      2.58649497	      2.92926153	     -0.89505121	     -0.43046731
      1.17950000	     -1.40895497	      3.20426260	     -3.26644740	      0.21377977	      1.06870736	      0.30463264	     27.71970388	     -0.89526166	      3.28010534	    -48.12508691	      5.39227858	    -16.50815971	      5.31092022	      6.04295679	      7.13425620	     -2.59285421	    -10.08988031	      7.09072669	     -1.56545250	      2.46124692	      2.76290439	     -0.73645595	     -0.57239633
      1.18366667	     -1.44428138	      3.18395090	     -3.28322474	      0.21917999	      1.06893045	      0.30469025	     27.78633912	     -0.78770647	      3.33724929	    -46.39515146	      5.18193082	    -16.80068369	      5.13768844	      5.64104836	      7.14785621	     -2.49597588	     -9.84804000	      7.13990919	     -1.68067963	      2.36041158	      2.81485253	     -0.73907359	     -0.65027275
